<svg width="80" height="81" viewBox="0 0 80 81" fill="none" xmlns="http://www.w3.org/2000/svg">
<g clip-path="url(#clip0_1_368)">
<g clip-path="url(#clip1_1_368)">
<path d="M54.1 25.45V20.2M54.1 20.2L45.05 11.2M54.1 20.2H48.05C47.2543 20.2 46.4913 19.8839 45.9287 19.3213C45.3661 18.7587 45.05 17.9956 45.05 17.2V11.2M45.05 11.2H17.75C16.1587 11.2 14.6326 11.8321 13.5074 12.9573C12.3821 14.0825 11.75 15.6087 11.75 17.2V57.7999C11.75 59.3912 12.3821 60.9174 13.5074 62.0426C14.6326 63.1678 16.1587 63.7999 17.75 63.7999H31.1M48.65 62.5499C46.25 59.8499 45.067 56.1829 45.1 51.5499C45.1 47.4619 48.56 44.4 52.55 44.4C57.208 44.4 60.1 48.077 60.1 52.45M56.1 63.7C53.567 62.433 51.75 60.9669 50.65 59.2999C49.35 57.3669 48.75 54.8669 48.85 51.7999C48.85 49.6159 50.632 47.95 52.8 47.95C54.879 47.95 56.8 49.7009 56.8 51.7999C56.8 54.0589 57.369 56.5499 60.1 56.5499C62.031 56.5499 63.65 55.183 63.65 53.2C64.093 46.67 59.488 40.2999 52.55 40.2999C48.053 40.2999 43.838 43.029 42.5 47.4C41.333 51.167 41.333 54.8829 42.5 58.5499M65.85 44.95C63.355 39.75 58.497 36.2 52.6 36.2C45.962 36.2 40.805 40.508 38.9 46.7M52.65 52.2C52.817 57.467 55.4 60.2499 60.4 60.5499M18.85 51.7H26.25M18.85 29.2H38.5M18.85 40.45H28M52.35 28.0499C40.334 28.0499 30.55 37.98 30.55 49.95C30.55 61.896 40.379 71.8 52.35 71.8C64.32 71.8 74.25 61.94 74.25 49.95C74.25 37.935 64.365 28.0499 52.35 28.0499Z" stroke="#F99507" stroke-width="1.5" stroke-linecap="round" stroke-linejoin="round"/>
</g>
</g>
<defs>
<clipPath id="clip0_1_368">
<rect width="80" height="80" fill="white" transform="translate(0 0.5)"/>
</clipPath>
<clipPath id="clip1_1_368">
<rect width="80" height="80" fill="white" transform="translate(0 0.5)"/>
</clipPath>
</defs>
</svg>
