<svg width="80" height="81" viewBox="0 0 80 81" fill="none" xmlns="http://www.w3.org/2000/svg">
<g clip-path="url(#clip0_1_361)">
<g clip-path="url(#clip1_1_361)">
<path d="M51.361 49H49.165M51.361 49C51.361 45.867 50.28 43.117 48.115 40.95M51.361 49C51.295 55.19 46.231 60.25 40.025 60.25C33.795 60.25 28.739 55.112 28.739 48.9C28.739 42.723 33.827 37.55 40.025 37.55M48.115 40.95C45.852 38.717 43.121 37.55 40.025 37.55M48.115 40.95L46.468 42.5M40.025 37.55V41.601M25.641 33.55L25.492 25.25C25.492 17.977 31.985 11 40.05 11C48.115 11 54.558 17.977 54.558 25.101L54.458 33.55M25.641 33.55C21.646 37.35 19 43.325 19 48.9C19 60.456 28.45 70 40.025 70C51.58 70 61 60.42 61 48.9C61 42.947 58.594 37.754 54.458 33.55M25.641 33.55C33.604 25.977 46.481 26.027 54.458 33.55M40.025 45.65C41.762 45.65 43.271 47.155 43.271 48.9C43.271 50.616 41.741 52.15 40.025 52.15C38.298 52.15 36.828 50.601 36.828 48.9C36.828 47.17 38.276 45.65 40.025 45.65Z" stroke="#F99507" stroke-width="1.5" stroke-linecap="round" stroke-linejoin="round"/>
</g>
</g>
<defs>
<clipPath id="clip0_1_361">
<rect width="80" height="80" fill="white" transform="translate(0 0.5)"/>
</clipPath>
<clipPath id="clip1_1_361">
<rect width="80" height="80" fill="white" transform="translate(0 0.5)"/>
</clipPath>
</defs>
</svg>
