<svg width="476" height="245" viewBox="0 0 476 245" fill="none" xmlns="http://www.w3.org/2000/svg">
<g clip-path="url(#clip0_6_60)">
<mask id="mask0_6_60" style="mask-type:luminance" maskUnits="userSpaceOnUse" x="-26" y="0" width="528" height="245">
<path d="M-25.5 0H501.5V245H-25.5V0Z" fill="white"/>
</mask>
<g mask="url(#mask0_6_60)">
<mask id="mask1_6_60" style="mask-type:luminance" maskUnits="userSpaceOnUse" x="-26" y="0" width="528" height="245">
<path d="M-25.5 0H501.5V245H-25.5V0Z" fill="white"/>
</mask>
<g mask="url(#mask1_6_60)">
<path d="M384.76 30.625H251.342C243.973 30.625 238 36.7194 238 44.2358V125.902C238 133.42 243.973 139.514 251.342 139.514H384.76C392.128 139.514 398.101 133.42 398.101 125.902V44.2358C398.101 36.7184 392.128 30.625 384.76 30.625Z" fill="#E1E3E1"/>
<path d="M351.405 47.6393C352.064 47.6391 352.709 47.4393 353.257 47.0652C353.805 46.6911 354.232 46.1595 354.484 45.5375C354.737 44.9156 354.803 44.2313 354.674 43.5712C354.545 42.9111 354.227 42.3047 353.761 41.8288C353.295 41.3529 352.701 41.0289 352.054 40.8977C351.407 40.7664 350.737 40.8339 350.128 41.0915C349.519 41.3491 348.998 41.7854 348.632 42.345C348.265 42.9047 348.07 43.5627 348.07 44.2358C348.07 44.6828 348.156 45.1255 348.324 45.5385C348.491 45.9515 348.737 46.3267 349.047 46.6428C349.356 46.9588 349.724 47.2095 350.129 47.3805C350.533 47.5515 350.967 47.6394 351.405 47.6393ZM364.747 47.6393C365.19 47.6471 365.629 47.5648 366.04 47.3973C366.452 47.2298 366.826 46.9804 367.142 46.6637C367.457 46.3469 367.708 45.9691 367.879 45.5524C368.051 45.1356 368.139 44.6882 368.139 44.2363C368.139 43.7844 368.051 43.337 367.879 42.9203C367.708 42.5035 367.457 42.1257 367.142 41.809C366.826 41.4922 366.452 41.2428 366.04 41.0753C365.629 40.9078 365.19 40.8255 364.747 40.8334C363.863 40.8331 363.014 41.1914 362.389 41.8294C361.763 42.4675 361.411 43.333 361.411 44.2358C361.411 44.6829 361.497 45.1256 361.665 45.5386C361.833 45.9516 362.079 46.3268 362.388 46.6428C362.698 46.9589 363.066 47.2095 363.471 47.3805C363.875 47.5515 364.309 47.6394 364.747 47.6393ZM378.089 47.6393C378.532 47.6471 378.971 47.5648 379.382 47.3973C379.794 47.2298 380.168 46.9804 380.484 46.6637C380.799 46.3469 381.05 45.9691 381.221 45.5524C381.393 45.1356 381.481 44.6882 381.481 44.2363C381.481 43.7844 381.393 43.337 381.221 42.9203C381.05 42.5035 380.799 42.1257 380.484 41.809C380.168 41.4922 379.794 41.2428 379.382 41.0753C378.971 40.9078 378.532 40.8255 378.089 40.8334C377.205 40.8331 376.356 41.1914 375.731 41.8294C375.105 42.4675 374.753 43.333 374.753 44.2358C374.753 44.6829 374.839 45.1256 375.007 45.5386C375.175 45.9516 375.421 46.3268 375.73 46.6428C376.04 46.9589 376.408 47.2095 376.813 47.3805C377.217 47.5515 377.651 47.6394 378.089 47.6393Z" fill="#1F1F1F"/>
<path d="M197.975 136.111H91.2399C83.8719 136.111 77.8989 142.205 77.8989 149.723V217.777C77.8989 225.295 83.8719 231.389 91.2399 231.389H197.975C205.343 231.389 211.316 225.295 211.316 217.777V149.723C211.316 142.205 205.343 136.111 197.975 136.111Z" fill="#E1E3E1"/>
<path d="M91.24 197.361V170.139" stroke="#1F1F1F" stroke-linecap="round"/>
<path d="M187.968 142.917V231.389H121.26L167.956 142.917H187.968Z" fill="#1F1F1F"/>
<path fill-rule="evenodd" clip-rule="evenodd" d="M238 41.3438C216.179 41.3438 198.475 59.4054 198.475 81.6667V95.2775C198.475 95.4128 198.422 95.5427 198.329 95.6384C198.235 95.7341 198.108 95.7879 197.975 95.7879C197.842 95.7879 197.715 95.7341 197.621 95.6384C197.528 95.5427 197.475 95.4128 197.475 95.2775V81.6667C197.475 58.8409 215.627 40.3229 238 40.3229C260.373 40.3229 278.525 58.8409 278.525 81.6667V95.2775C278.525 95.4128 278.472 95.5427 278.379 95.6384C278.285 95.7341 278.158 95.7879 278.025 95.7879C277.892 95.7879 277.765 95.7341 277.671 95.6384C277.578 95.5427 277.525 95.4128 277.525 95.2775V81.6667C277.525 59.4054 259.822 41.3438 238 41.3438Z" fill="#1F1F1F"/>
<path d="M284.696 95.2775H191.304C178.409 95.2775 167.956 105.942 167.956 119.098V207.569C167.956 220.725 178.409 231.389 191.304 231.389H284.696C297.591 231.389 308.044 220.725 308.044 207.569V119.098C308.044 105.942 297.591 95.2775 284.696 95.2775Z" fill="white"/>
<path fill-rule="evenodd" clip-rule="evenodd" d="M191.304 95.7879C178.685 95.7879 168.456 106.224 168.456 119.098V207.569C168.456 220.443 178.685 230.879 191.304 230.879H284.696C297.315 230.879 307.544 220.443 307.544 207.569V119.098C307.544 106.224 297.315 95.7879 284.696 95.7879H191.304ZM167.456 119.098C167.456 105.66 178.133 94.767 191.304 94.767H284.696C297.867 94.767 308.544 105.66 308.544 119.098V207.569C308.544 221.006 297.867 231.9 284.696 231.9H191.304C178.133 231.9 167.456 221.006 167.456 207.569V119.098Z" fill="#1F1F1F"/>
<path d="M234.114 161.343C230.028 161.343 226.576 159.896 223.758 157.022C220.939 154.146 219.522 150.624 219.522 146.456C219.522 142.287 220.939 138.765 223.758 135.89C226.576 133.015 230.028 131.568 234.114 131.568C238.2 131.568 241.652 133.015 244.471 135.89C247.289 138.765 248.707 142.287 248.707 146.456C248.707 150.624 247.289 154.146 244.471 157.022C241.652 159.896 238.2 161.343 234.114 161.343ZM262.332 199.062L257.462 193.108V178.51C255.128 177.591 253.243 176.111 251.826 174.086C250.408 172.061 249.691 169.798 249.691 167.281C249.691 163.98 250.825 161.156 253.093 158.842C255.361 156.527 258.113 155.371 261.365 155.371C264.617 155.371 267.369 156.527 269.637 158.842C271.905 161.156 273.039 163.963 273.039 167.281C273.039 169.798 272.322 172.061 270.904 174.086C269.487 176.111 267.602 177.574 265.267 178.51V179.207L269.153 183.171L265.267 187.136L269.153 191.1L262.349 199.045L262.332 199.062ZM261.365 173.253C262.983 173.253 264.367 172.674 265.501 171.517C266.635 170.36 267.202 168.948 267.202 167.297C267.202 165.648 266.635 164.235 265.501 163.078C264.367 161.922 262.983 161.343 261.365 161.343C259.747 161.343 258.363 161.922 257.229 163.078C256.095 164.235 255.528 165.648 255.528 167.297C255.528 168.948 256.095 170.36 257.229 171.517C258.363 172.674 259.747 173.253 261.365 173.253ZM242.103 169.884C242.42 172.589 243.253 175.073 244.588 177.336C245.925 179.588 247.655 181.572 249.691 183.189V195.099H202.995V185.672C202.995 183.426 203.612 181.368 204.846 179.514C206.046 177.692 207.689 176.221 209.615 175.243C213.435 173.253 217.42 171.773 221.54 170.785C225.666 169.792 229.891 169.29 234.131 169.288C235.432 169.288 236.766 169.339 238.117 169.441C239.484 169.543 240.802 169.696 242.103 169.884Z" fill="#1F1F1F"/>
<path d="M451.468 47.6392C451.468 25.0952 433.557 6.80591 411.443 6.80591C389.346 6.80591 371.418 25.0952 371.418 47.6392V78.2642C371.418 83.8952 375.904 88.4726 381.424 88.4726H411.443C433.557 88.4726 451.468 70.1997 451.468 47.6392Z" fill="#FFBA29"/>
<path fill-rule="evenodd" clip-rule="evenodd" d="M411.36 54.7167C411.493 54.7167 411.62 54.7704 411.713 54.8662C411.807 54.9619 411.86 55.0917 411.86 55.2271C411.86 59.0348 413.188 62.1453 415.864 64.6147C418.557 67.0984 421.706 68.3274 425.335 68.3274C425.847 68.3274 426.379 68.2948 426.918 68.2458C427.411 68.1908 427.9 68.1038 428.383 67.9855C428.447 67.9675 428.514 67.9628 428.58 67.9717C428.646 67.9805 428.71 68.0028 428.768 68.0372C428.825 68.0715 428.875 68.1172 428.915 68.1717C428.955 68.2261 428.984 68.2882 429 68.3542C429.016 68.4202 429.019 68.4888 429.009 68.556C428.999 68.6232 428.976 68.6877 428.941 68.7456C428.906 68.8035 428.86 68.8537 428.806 68.8932C428.751 68.9327 428.69 68.9607 428.625 68.9757C428.131 69.1023 427.609 69.1901 427.028 69.2605L427.015 69.2615C426.455 69.3126 425.889 69.3483 425.335 69.3483C421.46 69.3483 418.071 68.0263 415.194 65.3721C412.3 62.7027 410.86 59.3135 410.86 55.2271C410.86 55.0917 410.913 54.9619 411.006 54.8662C411.1 54.7704 411.227 54.7167 411.36 54.7167ZM411.51 21.0465C408.705 21.046 405.912 21.4117 403.199 22.1347C400.472 22.8725 397.839 23.9314 395.352 25.2901C395.236 25.3489 395.101 25.3591 394.978 25.3187C394.854 25.2783 394.751 25.1905 394.69 25.0737C394.628 24.9569 394.614 24.8203 394.649 24.6929C394.685 24.5655 394.768 24.4571 394.88 24.3908C397.435 22.9949 400.141 21.9068 402.942 21.1486H402.945C405.741 20.403 408.62 20.0256 411.51 20.0257C414.417 20.0257 417.275 20.3697 420.05 21.0608C422.861 21.7612 425.564 22.8547 428.082 24.3101C428.139 24.343 428.19 24.387 428.23 24.4397C428.271 24.4924 428.301 24.5528 428.318 24.6173C428.336 24.6819 428.341 24.7494 428.333 24.816C428.326 24.8825 428.305 24.9469 428.273 25.0053C428.241 25.0638 428.198 25.1152 428.146 25.1566C428.094 25.198 428.035 25.2287 427.972 25.2468C427.909 25.2649 427.843 25.2701 427.777 25.2621C427.712 25.2542 427.649 25.2331 427.592 25.2003C425.154 23.7906 422.536 22.7316 419.814 22.0531H419.813C417.095 21.3801 414.307 21.0421 411.51 21.0465ZM411.376 28.0729C406.854 28.056 402.394 29.1336 398.359 31.2171C394.278 33.3078 390.869 36.2498 388.113 40.032C388.074 40.0858 388.025 40.1312 387.968 40.1656C387.912 40.2001 387.849 40.2228 387.784 40.2326C387.719 40.2423 387.653 40.2389 387.589 40.2225C387.526 40.2062 387.466 40.1772 387.413 40.1371C387.36 40.0971 387.316 40.0469 387.282 39.9893C387.248 39.9318 387.226 39.868 387.216 39.8016C387.207 39.7353 387.21 39.6676 387.226 39.6026C387.242 39.5376 387.271 39.4764 387.31 39.4226C390.158 35.5148 393.687 32.4686 397.911 30.3045C402.085 28.1497 406.699 27.0352 411.376 27.0521C416.097 27.0403 420.76 28.1158 425.017 30.1983L425.019 30.1993C429.282 32.2784 432.961 35.4241 435.714 39.3439C435.79 39.4538 435.821 39.59 435.8 39.7229C435.778 39.8558 435.706 39.9746 435.599 40.0535C435.492 40.1323 435.359 40.1647 435.228 40.1436C435.098 40.1226 434.981 40.0498 434.903 39.9411C432.248 36.1591 428.698 33.1243 424.585 31.1191C420.462 29.1026 415.947 28.0614 411.376 28.0729Z" fill="#1F1F1F"/>
<path fill-rule="evenodd" clip-rule="evenodd" d="M411.376 34.7594C405.579 34.7594 400.632 36.7194 396.474 40.6628C392.323 44.5982 390.263 49.4308 390.263 55.2271C390.263 56.6685 390.425 58.2528 390.738 59.9995C391.066 61.741 391.577 63.6745 392.287 65.7978C392.31 65.8617 392.321 65.9298 392.318 65.9979C392.315 66.0661 392.299 66.1329 392.27 66.1946C392.242 66.2562 392.201 66.3113 392.151 66.3568C392.101 66.4022 392.043 66.4369 391.98 66.459C391.917 66.481 391.85 66.4899 391.783 66.4851C391.716 66.4803 391.651 66.4619 391.592 66.431C391.532 66.4001 391.479 66.3573 391.436 66.3052C391.393 66.2531 391.361 66.1927 391.341 66.1275C390.618 63.9654 390.094 61.986 389.755 60.1893L389.754 60.1853C389.434 58.3937 389.263 56.745 389.263 55.2271C389.263 49.148 391.438 44.0438 395.793 39.9146C400.14 35.7924 405.333 33.7385 411.376 33.7385C417.42 33.7385 422.645 35.7924 427.025 39.9135H427.026C431.397 44.0428 433.59 49.1643 433.59 55.2271C433.59 57.3106 432.831 59.0756 431.333 60.5313L431.331 60.5334C429.835 61.9687 428.01 62.6965 425.902 62.6965C423.793 62.6965 422.022 61.985 420.495 60.5548C418.958 59.1318 418.181 57.3443 418.181 55.2271C418.181 53.3906 417.535 51.8277 416.224 50.5823C414.897 49.342 413.35 48.7111 411.526 48.7111C409.694 48.7111 408.066 49.3307 406.728 50.5843L406.726 50.5864C405.399 51.8144 404.739 53.36 404.739 55.2271C404.739 60.0832 406.17 64.1287 408.984 67.4128C411.836 70.7213 415.42 72.9998 419.748 74.2156C419.811 74.2334 419.871 74.2638 419.922 74.305C419.974 74.3463 420.018 74.3975 420.05 74.4559C420.083 74.5142 420.103 74.5785 420.112 74.6451C420.12 74.7117 420.115 74.7792 420.097 74.8439C420.08 74.9086 420.05 74.9691 420.01 75.0221C419.969 75.075 419.919 75.1193 419.862 75.1524C419.805 75.1856 419.742 75.2069 419.677 75.2152C419.611 75.2234 419.545 75.2185 419.482 75.2007C414.971 73.9328 411.217 71.5492 408.233 68.0865L408.232 68.0855C405.242 64.5983 403.739 60.3067 403.739 55.2271C403.739 53.0803 404.512 51.257 406.053 49.8309C407.583 48.3967 409.456 47.6903 411.526 47.6903C413.605 47.6903 415.393 48.4202 416.901 49.832L416.903 49.834C418.426 51.2785 419.181 53.117 419.181 55.2271C419.181 57.0564 419.838 58.5693 421.168 59.8004L421.17 59.8024C422.512 61.0601 424.043 61.6757 425.902 61.6757C427.763 61.6757 429.34 61.0428 430.645 59.7902C431.949 58.5233 432.59 57.0227 432.59 55.2271C432.59 49.4492 430.514 44.6002 426.347 40.6639C422.155 36.7204 417.174 34.7594 411.376 34.7594Z" fill="#1F1F1F"/>
<path fill-rule="evenodd" clip-rule="evenodd" d="M411.51 41.7011C407.699 41.7011 404.436 43.0139 401.711 45.6129C398.995 48.2038 397.634 51.4041 397.634 55.2271C397.634 59.1308 398.324 62.5036 399.7 65.3272L399.701 65.3293C401.076 68.1856 403.047 71.0204 405.588 73.7981C405.633 73.8471 405.668 73.9046 405.691 73.9674C405.714 74.0302 405.725 74.097 405.722 74.164C405.72 74.2311 405.705 74.297 405.678 74.358C405.651 74.4191 405.612 74.4741 405.564 74.5198C405.516 74.5656 405.46 74.6013 405.398 74.6249C405.337 74.6484 405.271 74.6593 405.205 74.6571C405.14 74.6548 405.075 74.6393 405.015 74.6116C404.956 74.5838 404.902 74.5443 404.857 74.4953C402.262 71.6574 400.23 68.7429 398.804 65.7805C397.345 62.7864 396.634 59.2512 396.634 55.2271C396.634 51.1223 398.109 47.6525 401.029 44.8667C403.941 42.09 407.449 40.6802 411.51 40.6802C415.569 40.6802 419.078 42.0716 421.991 44.8677C424.911 47.6525 426.386 51.1223 426.386 55.2271C426.386 55.3625 426.333 55.4923 426.239 55.588C426.146 55.6838 426.019 55.7375 425.886 55.7375C425.753 55.7375 425.626 55.6838 425.532 55.588C425.439 55.4923 425.386 55.3625 425.386 55.2271C425.386 51.4041 424.025 48.2038 421.308 45.6129L421.307 45.6119C418.584 42.9986 415.322 41.7011 411.51 41.7011Z" fill="#1F1F1F"/>
<path d="M77.8989 231.389C100.004 231.389 117.924 213.107 117.924 190.556C117.924 168.004 100.004 149.723 77.8989 149.723C55.7929 149.723 37.8729 168.004 37.8729 190.556C37.8729 213.107 55.7929 231.389 77.8989 231.389Z" fill="#6DD38A"/>
<path fill-rule="evenodd" clip-rule="evenodd" d="M77.8989 165.545C64.3589 165.545 53.3829 176.743 53.3829 190.556C53.3829 204.368 64.3589 215.566 77.8989 215.566C91.4389 215.566 102.415 204.368 102.415 190.556C102.415 176.743 91.4389 165.545 77.8989 165.545ZM52.3829 190.556C52.3829 176.178 63.8069 164.525 77.8989 164.525C91.9909 164.525 103.415 176.178 103.415 190.556C103.415 204.932 91.9909 216.587 77.8989 216.587C63.8069 216.587 52.3829 204.932 52.3829 190.556Z" fill="#1F1F1F"/>
<path d="M69.7599 185.452C69.7602 185.702 69.7121 185.95 69.6183 186.181C69.5246 186.413 69.3871 186.623 69.2136 186.8C69.0402 186.977 68.8343 187.117 68.6076 187.212C68.381 187.308 68.1381 187.357 67.8929 187.357C67.3957 187.359 66.9181 187.159 66.5647 186.802C66.2113 186.445 66.0111 185.959 66.0079 185.452C66.0079 184.396 66.8419 183.546 67.8929 183.546C68.9429 183.546 69.7599 184.396 69.7599 185.452ZM89.7729 185.452C89.7732 185.702 89.725 185.95 89.6312 186.181C89.5374 186.413 89.3998 186.623 89.2263 186.8C89.0527 186.977 88.8467 187.117 88.6199 187.213C88.3932 187.308 88.1502 187.357 87.9049 187.357C87.4079 187.358 86.9305 187.159 86.5773 186.802C86.2242 186.445 86.0241 185.959 86.0209 185.452C86.0209 184.396 86.8549 183.546 87.9049 183.546C88.9559 183.546 89.7729 184.396 89.7729 185.452Z" fill="#1F1F1F"/>
<path fill-rule="evenodd" clip-rule="evenodd" d="M78.65 193.874V189.28H79.65V194.894H75.914V193.874H78.65ZM74.129 199.282C74.1137 199.805 74.2039 200.325 74.394 200.811C74.5841 201.296 74.87 201.737 75.234 202.105C75.9409 202.826 76.8995 203.231 77.899 203.231C78.8985 203.231 79.857 202.826 80.564 202.105L81.271 202.826C80.3765 203.739 79.1636 204.252 77.899 204.252C76.6343 204.252 75.4215 203.739 74.527 202.826C74.0665 202.36 73.7049 201.802 73.4645 201.187C73.2242 200.572 73.1103 199.913 73.13 199.251L74.129 199.282Z" fill="#1F1F1F"/>
<path fill-rule="evenodd" clip-rule="evenodd" d="M150.228 68.549C149.544 68.9909 148.752 69.2254 147.943 69.2254C147.134 69.2254 146.341 68.9909 145.658 68.549C136.152 62.3903 123.411 63.5469 115.106 72.0025C106.817 80.4591 105.7 93.4573 111.72 103.155C112.153 103.855 112.383 104.666 112.383 105.494C112.383 106.323 112.153 107.134 111.72 107.834C105.683 117.532 106.817 130.531 115.106 138.986C123.411 147.442 136.152 148.6 145.658 142.44C146.342 141.998 147.134 141.764 147.943 141.764C148.752 141.764 149.544 141.998 150.228 142.44C159.734 148.6 172.475 147.442 180.764 138.986C189.069 130.531 190.186 117.532 184.149 107.834C183.716 107.134 183.486 106.323 183.486 105.494C183.486 104.666 183.716 103.855 184.149 103.155C190.186 93.4573 189.052 80.4591 180.764 72.0025C172.475 63.5469 159.734 62.3903 150.228 68.549Z" fill="#0B57CE"/>
<path d="M127.93 88.4726C128.589 88.4724 129.234 88.2726 129.782 87.8985C130.33 87.5244 130.757 86.9928 131.009 86.3709C131.262 85.7489 131.328 85.0646 131.199 84.4045C131.07 83.7444 130.752 83.138 130.286 82.6621C129.82 82.1863 129.226 81.8622 128.579 81.731C127.932 81.5997 127.262 81.6672 126.653 81.9248C126.044 82.1825 125.523 82.6187 125.157 83.1784C124.79 83.738 124.595 84.396 124.595 85.0691C124.595 85.5162 124.681 85.9588 124.849 86.3718C125.016 86.7848 125.262 87.16 125.572 87.4761C125.882 87.7921 126.249 88.0428 126.654 88.2138C127.058 88.3848 127.492 88.4727 127.93 88.4726ZM147.943 88.4726C148.381 88.4727 148.815 88.3848 149.219 88.2138C149.624 88.0428 149.992 87.7922 150.301 87.4761C150.611 87.1601 150.857 86.7849 151.025 86.3719C151.192 85.9589 151.279 85.5162 151.279 85.0691C151.279 84.1661 150.928 83.3 150.302 82.6614C149.676 82.0229 148.828 81.6641 147.943 81.6641C147.059 81.6641 146.21 82.0229 145.585 82.6614C144.959 83.3 144.608 84.1661 144.608 85.0691C144.608 85.5162 144.694 85.9588 144.862 86.3718C145.029 86.7848 145.275 87.16 145.585 87.4761C145.895 87.7921 146.262 88.0428 146.667 88.2138C147.071 88.3848 147.505 88.4727 147.943 88.4726ZM167.956 88.4726C168.399 88.4804 168.838 88.3982 169.249 88.2307C169.661 88.0632 170.035 87.8138 170.351 87.497C170.666 87.1802 170.917 86.8024 171.088 86.3857C171.26 85.9689 171.348 85.5215 171.348 85.0696C171.348 84.6177 171.26 84.1703 171.088 83.7536C170.917 83.3368 170.666 82.959 170.351 82.6423C170.035 82.3255 169.661 82.0761 169.249 81.9086C168.838 81.7411 168.399 81.6589 167.956 81.6667C167.072 81.6664 166.223 82.0247 165.598 82.6627C164.972 83.3008 164.62 84.1664 164.62 85.0691C164.62 85.5162 164.706 85.9589 164.874 86.3719C165.042 86.7849 165.288 87.1601 165.597 87.4761C165.907 87.7922 166.275 88.0428 166.68 88.2138C167.084 88.3848 167.518 88.4727 167.956 88.4726ZM127.93 108.889C128.373 108.897 128.812 108.815 129.223 108.647C129.635 108.48 130.009 108.23 130.325 107.914C130.64 107.597 130.891 107.219 131.062 106.802C131.234 106.386 131.322 105.938 131.322 105.486C131.322 105.034 131.234 104.587 131.062 104.17C130.891 103.753 130.64 103.376 130.325 103.059C130.009 102.742 129.635 102.493 129.223 102.325C128.812 102.158 128.373 102.076 127.93 102.083C127.487 102.076 127.048 102.158 126.636 102.325C126.225 102.493 125.851 102.742 125.535 103.059C125.219 103.376 124.969 103.753 124.798 104.17C124.626 104.587 124.538 105.034 124.538 105.486C124.538 105.938 124.626 106.386 124.798 106.802C124.969 107.219 125.219 107.597 125.535 107.914C125.851 108.23 126.225 108.48 126.636 108.647C127.048 108.815 127.487 108.897 127.93 108.889ZM147.943 108.889C148.389 108.903 148.833 108.825 149.25 108.66C149.666 108.495 150.045 108.247 150.366 107.929C150.686 107.612 150.941 107.232 151.114 106.813C151.288 106.393 151.378 105.942 151.378 105.486C151.378 105.031 151.288 104.58 151.114 104.16C150.941 103.74 150.686 103.36 150.366 103.043C150.045 102.726 149.666 102.477 149.25 102.312C148.833 102.148 148.389 102.07 147.943 102.083C147.5 102.076 147.061 102.158 146.649 102.325C146.238 102.493 145.864 102.742 145.548 103.059C145.232 103.376 144.982 103.753 144.811 104.17C144.639 104.587 144.551 105.034 144.551 105.486C144.551 105.938 144.639 106.386 144.811 106.802C144.982 107.219 145.232 107.597 145.548 107.914C145.864 108.23 146.238 108.48 146.649 108.647C147.061 108.815 147.5 108.897 147.943 108.889ZM167.956 108.889C168.84 108.889 169.689 108.531 170.314 107.892C170.94 107.254 171.291 106.388 171.291 105.485C171.291 104.582 170.94 103.716 170.314 103.077C169.689 102.439 168.84 102.08 167.956 102.08C167.071 102.08 166.223 102.439 165.598 103.077C164.972 103.716 164.621 104.582 164.621 105.485C164.621 106.388 164.972 107.254 165.598 107.892C166.223 108.531 167.071 108.889 167.956 108.889ZM127.93 129.306C128.373 129.314 128.812 129.231 129.223 129.064C129.635 128.896 130.009 128.647 130.325 128.33C130.64 128.014 130.891 127.636 131.062 127.219C131.234 126.802 131.322 126.355 131.322 125.903C131.322 125.451 131.234 125.004 131.062 124.587C130.891 124.17 130.64 123.792 130.325 123.476C130.009 123.159 129.635 122.909 129.223 122.742C128.812 122.574 128.373 122.492 127.93 122.5C127.487 122.492 127.048 122.574 126.636 122.742C126.225 122.909 125.851 123.159 125.535 123.476C125.219 123.792 124.969 124.17 124.798 124.587C124.626 125.004 124.538 125.451 124.538 125.903C124.538 126.355 124.626 126.802 124.798 127.219C124.969 127.636 125.219 128.014 125.535 128.33C125.851 128.647 126.225 128.896 126.636 129.064C127.048 129.231 127.487 129.314 127.93 129.306ZM147.943 129.306C148.389 129.32 148.833 129.242 149.25 129.077C149.666 128.912 150.045 128.663 150.366 128.346C150.686 128.029 150.941 127.649 151.114 127.229C151.288 126.81 151.378 126.359 151.378 125.903C151.378 125.447 151.288 124.996 151.114 124.577C150.941 124.157 150.686 123.777 150.366 123.46C150.045 123.142 149.666 122.894 149.25 122.729C148.833 122.564 148.389 122.486 147.943 122.5C147.5 122.492 147.061 122.574 146.649 122.742C146.238 122.909 145.864 123.159 145.548 123.476C145.232 123.792 144.982 124.17 144.811 124.587C144.639 125.004 144.551 125.451 144.551 125.903C144.551 126.355 144.639 126.802 144.811 127.219C144.982 127.636 145.232 128.014 145.548 128.33C145.864 128.647 146.238 128.896 146.649 129.064C147.061 129.231 147.5 129.314 147.943 129.306ZM167.956 129.306C168.84 129.306 169.689 128.947 170.314 128.309C170.94 127.67 171.291 126.804 171.291 125.901C171.291 124.999 170.94 124.133 170.314 123.494C169.689 122.856 168.84 122.497 167.956 122.497C167.071 122.497 166.223 122.856 165.598 123.494C164.972 124.133 164.621 124.999 164.621 125.901C164.621 126.804 164.972 127.67 165.598 128.309C166.223 128.947 167.071 129.306 167.956 129.306Z" fill="white"/>
<path fill-rule="evenodd" clip-rule="evenodd" d="M168.309 84.7088C168.403 84.8045 168.455 84.9343 168.455 85.0696C168.455 85.205 168.403 85.3348 168.309 85.4305L129.138 125.392H167.956C168.088 125.392 168.216 125.446 168.309 125.542C168.403 125.637 168.456 125.767 168.456 125.902C168.456 126.038 168.403 126.168 168.309 126.263C168.216 126.359 168.088 126.413 167.956 126.413H126.723L167.602 84.7088C167.696 84.6131 167.823 84.5593 167.955 84.5593C168.088 84.5593 168.215 84.6131 168.309 84.7088Z" fill="white"/>
<path fill-rule="evenodd" clip-rule="evenodd" d="M187.268 95.6521C176.294 97.609 167.956 107.341 167.956 119.098V145.877C172.81 144.947 177.275 142.539 180.764 138.969C189.069 130.514 190.187 117.515 184.149 107.817C183.716 107.117 183.486 106.306 183.486 105.478C183.486 104.649 183.716 103.838 184.149 103.138C185.575 100.831 186.622 98.3029 187.251 95.6521H187.268Z" fill="#1F1F1F" stroke="#1F1F1F" stroke-linecap="round"/>
<path fill-rule="evenodd" clip-rule="evenodd" d="M357.576 231.389C357.576 231.254 357.629 231.124 357.722 231.028C357.816 230.933 357.943 230.879 358.076 230.879H421.449C421.582 230.879 421.709 230.933 421.802 231.028C421.896 231.124 421.949 231.254 421.949 231.389C421.949 231.525 421.896 231.654 421.802 231.75C421.709 231.846 421.582 231.9 421.449 231.9H358.076C357.943 231.9 357.816 231.846 357.722 231.75C357.629 231.654 357.576 231.525 357.576 231.389ZM444.297 231.389C444.297 231.254 444.35 231.124 444.443 231.028C444.537 230.933 444.664 230.879 444.797 230.879H464.81C464.943 230.879 465.07 230.933 465.163 231.028C465.257 231.124 465.31 231.254 465.31 231.389C465.31 231.525 465.257 231.654 465.163 231.75C465.07 231.846 464.943 231.9 464.81 231.9H444.797C444.664 231.9 444.537 231.846 444.443 231.75C444.35 231.654 444.297 231.525 444.297 231.389Z" fill="#1F1F1F"/>
<path d="M11.1899 231.389H338.063" stroke="#1F1F1F" stroke-linecap="round"/>
<path d="M76.431 56.3163C72.529 60.2976 65.074 61.7941 64.541 61.25C64.007 60.7059 65.491 53.117 69.393 49.1358C71.345 47.1452 74.497 47.1452 76.431 49.1358C78.382 51.1264 78.382 54.342 76.431 56.3163Z" fill="#E26962"/>
<path d="M52.666 66.1837C56.569 62.2024 64.023 60.7059 64.556 61.25C65.091 61.7941 63.606 69.383 59.704 73.3642C57.753 75.3548 54.601 75.3548 52.666 73.3642C50.731 71.3736 50.731 68.158 52.666 66.1837Z" fill="#E26962"/>
<path d="M69.393 73.3642C65.491 69.383 64.023 61.7778 64.54 61.25C65.074 60.7059 72.529 62.2198 76.431 66.1837C78.382 68.1743 78.382 71.3899 76.431 73.3642C74.497 75.3549 71.344 75.3549 69.393 73.3642Z" fill="#E26962"/>
<path d="M59.72 49.1358C63.623 53.117 65.09 60.7222 64.573 61.25C64.04 61.7941 56.585 60.2802 52.683 56.3163C50.731 54.3257 50.731 51.1101 52.683 49.1358C54.633 47.1625 57.769 47.1451 59.72 49.1358Z" fill="#E26962"/>
<path d="M358.676 174.069L377.905 154.452C378.472 159.523 382.641 163.418 387.795 163.367L395.95 163.504C397.269 163.481 398.58 163.73 399.803 164.235C401.027 164.74 402.138 165.491 403.072 166.444C404.005 167.396 404.742 168.53 405.237 169.779C405.733 171.027 405.977 172.365 405.956 173.712L406.089 182.032C406.068 183.379 406.313 184.717 406.808 185.965C407.304 187.214 408.04 188.348 408.974 189.3C409.907 190.253 411.019 191.004 412.242 191.509C413.466 192.014 414.776 192.262 416.096 192.24L424.251 192.376C425.57 192.354 426.881 192.602 428.104 193.107C429.328 193.612 430.439 194.364 431.373 195.316C432.306 196.268 433.043 197.402 433.538 198.651C434.034 199.9 434.278 201.237 434.257 202.584L433.74 224.617C433.74 228.36 430.738 231.389 427.069 231.389H418.981C417.667 231.391 416.366 231.127 415.152 230.613C413.939 230.099 412.837 229.345 411.91 228.394L358.659 174.069H358.676Z" fill="#FFBA29" stroke="#1F1F1F"/>
<path fill-rule="evenodd" clip-rule="evenodd" d="M365.764 166.133L428.961 230.606L428.254 231.328L365.057 166.855L365.764 166.133Z" fill="#1F1F1F"/>
<path d="M319.768 170.462C335.395 186.404 360.744 186.404 376.371 170.462C391.997 154.521 391.997 128.659 376.371 112.717C360.744 96.775 335.395 96.775 319.768 112.717C304.142 128.659 304.142 154.521 319.768 170.462ZM341.882 120.833C345.785 124.814 345.785 131.279 341.882 135.278C337.98 139.275 331.642 139.259 327.723 135.278C323.804 131.297 323.821 124.831 327.723 120.833C331.626 116.834 337.963 116.852 341.882 120.833Z" fill="#FFBA29"/>
<path fill-rule="evenodd" clip-rule="evenodd" d="M319.415 112.356C335.237 96.2146 360.902 96.2146 376.724 112.356C392.546 128.497 392.546 154.682 376.724 170.823C360.902 186.965 335.237 186.965 319.415 170.823C303.593 154.682 303.593 128.497 319.415 112.356ZM376.017 113.078C360.586 97.3354 335.553 97.3354 320.122 113.078C304.691 128.821 304.691 154.358 320.122 170.101C335.553 185.844 360.586 185.844 376.017 170.101C391.448 154.358 391.448 128.821 376.017 113.078ZM341.529 121.194C337.804 117.41 331.783 117.397 328.077 121.193C324.368 124.993 324.355 131.135 328.076 134.915C331.801 138.701 337.822 138.714 341.528 134.917C345.236 131.118 345.235 124.976 341.529 121.194ZM327.369 120.473C331.468 116.273 338.122 116.293 342.235 120.471L342.236 120.472C346.334 124.653 346.333 131.44 342.236 135.638C338.137 139.838 331.483 139.817 327.371 135.639C323.254 131.457 323.274 124.668 327.369 120.473ZM396.967 105.588L419.548 113.261L419.565 113.244C420.732 113.652 421.099 115.167 420.215 116.069L413.385 123.037L422.156 131.987C422.254 132.08 422.332 132.193 422.386 132.318C422.441 132.443 422.47 132.578 422.472 132.715C422.474 132.851 422.449 132.987 422.399 133.114C422.349 133.241 422.274 133.356 422.179 133.453C422.085 133.55 421.972 133.626 421.848 133.677C421.723 133.729 421.59 133.754 421.456 133.752C421.322 133.75 421.19 133.72 421.068 133.665C420.945 133.61 420.835 133.53 420.743 133.43L411.97 124.48L405.156 131.432C404.955 131.639 404.706 131.79 404.431 131.87C404.157 131.95 403.867 131.958 403.59 131.891C403.312 131.824 403.056 131.686 402.845 131.49C402.634 131.293 402.477 131.045 402.387 130.769L394.866 107.732C394.416 106.405 395.666 105.146 396.967 105.588ZM427.62 105.486C427.62 105.35 427.673 105.221 427.766 105.125C427.86 105.029 427.987 104.975 428.12 104.975H441.462C441.595 104.975 441.722 105.029 441.815 105.125C441.909 105.221 441.962 105.35 441.962 105.486C441.962 105.621 441.909 105.751 441.815 105.847C441.722 105.942 441.595 105.996 441.462 105.996H428.12C427.987 105.996 427.86 105.942 427.766 105.847C427.673 105.751 427.62 105.621 427.62 105.486ZM434.291 119.098C434.291 118.962 434.344 118.832 434.437 118.737C434.531 118.641 434.658 118.587 434.791 118.587H461.475C461.608 118.587 461.735 118.641 461.828 118.737C461.922 118.832 461.975 118.962 461.975 119.098C461.975 119.233 461.922 119.363 461.828 119.458C461.735 119.554 461.608 119.608 461.475 119.608H434.791C434.658 119.608 434.531 119.554 434.437 119.458C434.344 119.363 434.291 119.233 434.291 119.098ZM304.209 81.6667C304.209 81.5313 304.262 81.4015 304.355 81.3057C304.449 81.21 304.576 81.1562 304.709 81.1562H314.715C314.848 81.1562 314.975 81.21 315.068 81.3057C315.162 81.4015 315.215 81.5313 315.215 81.6667C315.215 81.802 315.162 81.9319 315.068 82.0276C314.975 82.1233 314.848 82.1771 314.715 82.1771H304.709C304.576 82.1771 304.449 82.1233 304.355 82.0276C304.262 81.9319 304.209 81.802 304.209 81.6667ZM315.069 57.4862C315.163 57.5819 315.215 57.7117 315.215 57.847C315.215 57.9824 315.163 58.1122 315.069 58.2079L301.727 71.8197C301.633 71.9154 301.506 71.9691 301.373 71.969C301.24 71.9689 301.113 71.915 301.019 71.8192C300.926 71.7233 300.873 71.5934 300.873 71.458C300.873 71.3225 300.926 71.1927 301.02 71.0969L314.362 57.4862C314.456 57.3905 314.583 57.3367 314.715 57.3367C314.848 57.3367 314.975 57.3905 315.069 57.4862ZM291.367 57.3371C291.5 57.3371 291.627 57.3909 291.72 57.4866C291.814 57.5824 291.867 57.7122 291.867 57.8475V68.0559C291.867 68.1913 291.814 68.3211 291.72 68.4168C291.627 68.5125 291.5 68.5663 291.367 68.5663C291.234 68.5663 291.107 68.5125 291.013 68.4168C290.92 68.3211 290.867 68.1913 290.867 68.0559V57.8475C290.867 57.7122 290.92 57.5824 291.013 57.4866C291.107 57.3909 291.234 57.3371 291.367 57.3371Z" fill="#1F1F1F"/>
</g>
</g>
</g>
<defs>
<clipPath id="clip0_6_60">
<rect width="476" height="245" fill="white"/>
</clipPath>
</defs>
</svg>
