<svg width="80" height="81" viewBox="0 0 80 81" fill="none" xmlns="http://www.w3.org/2000/svg">
<g clip-path="url(#clip0_1_354)">
<g clip-path="url(#clip1_1_354)">
<path d="M28.242 43.156L12.684 58.714M51.495 55.834L54.695 59.004C55.0709 59.3764 55.579 59.5846 56.1081 59.5831C56.6372 59.5816 57.1442 59.3705 57.518 58.996L64.45 52.049M40.41 51.929C39.411 51.6524 38.4355 51.2966 37.493 50.865L32.9 55.458L26.692 55.448V60.341C26.692 60.9776 26.4391 61.588 25.989 62.0381C25.539 62.4882 24.9285 62.741 24.292 62.741H19.302V68.101C19.302 68.4162 19.2399 68.7283 19.1193 69.0195C18.9987 69.3107 18.8219 69.5752 18.599 69.7981C18.3762 70.021 18.1116 70.1977 17.8204 70.3184C17.5292 70.439 17.2172 70.501 16.902 70.501H11.11C10.5844 70.501 10.0639 70.3975 9.57833 70.1962C9.09277 69.9949 8.65163 69.6999 8.28015 69.3281C7.90866 68.9562 7.6141 68.5148 7.41332 68.029C7.21254 67.5432 7.10946 67.0227 7.10999 66.497L7.11699 60.827C7.11988 58.4439 8.06786 56.1592 9.75299 54.474L26.175 38.052C25.555 36.002 25.245 33.85 25.245 31.593C25.245 20.102 34.639 10.498 46.175 10.498C57.706 10.498 67.105 20.112 67.105 31.593C67.105 34.283 66.585 36.873 65.639 39.261M50.568 32.374C53.396 32.374 55.736 29.977 55.736 27.166C55.736 24.318 53.428 21.957 50.568 21.957C47.744 21.957 45.4 24.35 45.4 27.166C45.4 29.946 47.777 32.374 50.568 32.374ZM57.894 40.431C49.622 40.431 42.894 47.204 42.894 55.466C42.894 63.695 49.644 70.502 57.894 70.502C66.111 70.502 72.894 63.672 72.894 55.466C72.894 47.227 66.134 40.431 57.894 40.431Z" stroke="#F99507" stroke-width="1.5" stroke-linecap="round" stroke-linejoin="round"/>
</g>
</g>
<defs>
<clipPath id="clip0_1_354">
<rect width="80" height="80" fill="white" transform="translate(0 0.5)"/>
</clipPath>
<clipPath id="clip1_1_354">
<rect width="80" height="80" fill="white" transform="translate(0 0.5)"/>
</clipPath>
</defs>
</svg>
