<svg width="45" height="45" viewBox="0 0 45 45" fill="none" xmlns="http://www.w3.org/2000/svg">
<circle cx="22.5" cy="22.5" r="22.5" fill="#FFBA29"/>
<path d="M23 9C21.4087 9 19.8826 9.63214 18.7574 10.7574C17.6321 11.8826 17 13.4087 17 15V16H19V15C19 13.9391 19.4214 12.9217 20.1716 12.1716C20.9217 11.4214 21.9391 11 23 11C24.0609 11 25.0783 11.4214 25.8284 12.1716C26.5786 12.9217 27 13.9391 27 15V16H29V15C29 13.4087 28.3679 11.8826 27.2426 10.7574C26.1174 9.63214 24.5913 9 23 9Z" fill="white"/>
<path d="M29 18H17C16.2044 18 15.4413 18.3161 14.8787 18.8787C14.3161 19.4413 14 20.2044 14 21V29C14 29.7956 14.3161 30.5587 14.8787 31.1213C15.4413 31.6839 16.2044 32 17 32H29C29.7956 32 30.5587 31.6839 31.1213 31.1213C31.6839 30.5587 32 29.7956 32 29V21C32 20.2044 31.6839 19.4413 31.1213 18.8787C30.5587 18.3161 29.7956 18 29 18ZM24 25.73V28C24 28.2652 23.8946 28.5196 23.7071 28.7071C23.5196 28.8946 23.2652 29 23 29C22.7348 29 22.4804 28.8946 22.2929 28.7071C22.1054 28.5196 22 28.2652 22 28V25.73C21.6187 25.5099 21.3207 25.1701 21.1522 24.7633C20.9838 24.3566 20.9542 23.9056 21.0681 23.4803C21.1821 23.055 21.4332 22.6793 21.7825 22.4112C22.1318 22.1432 22.5597 21.9979 23 21.9979C23.4403 21.9979 23.8682 22.1432 24.2175 22.4112C24.5668 22.6793 24.8179 23.055 24.9319 23.4803C25.0458 23.9056 25.0162 24.3566 24.8478 24.7633C24.6793 25.1701 24.3813 25.5099 24 25.73Z" fill="white"/>
</svg>
